<svg xmlns="http://www.w3.org/2000/svg" viewBox="0 0 560.65 140.47"><defs><style>.cls-1,.cls-3{fill:#eb6611;}.cls-1,.cls-2{fill-rule:evenodd;}.cls-2{fill:#084577;}.cls-4{fill:#00497b;}</style></defs><title>nwLogo</title><g id="Layer_2" data-name="Layer 2"><g id="Layer_1-2" data-name="Layer 1"><path class="cls-1" d="M130.55,99.39a1.19,1.19,0,0,0-1.64.06L110.34,118a3.71,3.71,0,1,1-3.21-2.76L125,97.43a1.17,1.17,0,0,0,.34-1.06,1.2,1.2,0,0,0-.67-.89A27.87,27.87,0,0,0,113.31,93a1.21,1.21,0,0,0-.88.36L104,101.78a3.71,3.71,0,1,1-3-3l2.89-2.88a1.21,1.21,0,0,0-1.05-2c-2.28.36-4.58.83-6.91,1.29,0,0,0,0,0,0,.38-1.87.76-3.74,1.11-5.62,13.54-2.68,26.58-4.28,38.3,7A70.25,70.25,0,0,0,32,11.32L38,17.37a2.65,2.65,0,0,1,0,3.76l-1.95,2a1.21,1.21,0,0,0,0,1.7L46.16,34.87a1.15,1.15,0,0,0,1,.34,53.47,53.47,0,0,1,18.54.13A39.46,39.46,0,0,1,86.13,46.8h0C99.81,60.47,99,74.83,96.41,88.88c0,.14,0,.26-.07.4s-.06.26-.08.4c-.33,1.77-.69,3.55-1.05,5.31a3.38,3.38,0,0,1-.08.34,2.57,2.57,0,0,1-.08.4c0,.13,0,.27-.07.41-1.35,6.61-2.57,13.11-2.09,19.26a1.2,1.2,0,0,0,2,.76l14.63-14.64a3.72,3.72,0,1,1,3,3L95,122.12a1.16,1.16,0,0,0-.27,1.29,25.65,25.65,0,0,0,5.47,8.38,1.14,1.14,0,0,0,.86.37,1.12,1.12,0,0,0,.86-.35l19-19a3.7,3.7,0,0,1,6.26-3.28,3.42,3.42,0,0,1,.67,1,69.93,69.93,0,0,0,5.36-9,2.55,2.55,0,0,1-1.11-.66C131.56,100.3,131.06,99.83,130.55,99.39Z"></path><path class="cls-2" d="M90,93.93a136.45,136.45,0,0,0,2.28-13.68A1.21,1.21,0,0,0,91.59,79a1.19,1.19,0,0,0-1.36.24L85.55,84a3.71,3.71,0,1,1-3-3L92,71.6a1.2,1.2,0,0,0,.34-1A31.93,31.93,0,0,0,89.23,60a1.14,1.14,0,0,0-.89-.65,1.17,1.17,0,0,0-1,.33L68,78.92a3.71,3.71,0,1,1-3-3L85.35,55.6a1.19,1.19,0,0,0,.09-1.6,38.34,38.34,0,0,0-3.07-3.44v0a41.8,41.8,0,0,0-3.72-3.34,1.21,1.21,0,0,0-1.6.09L56.71,67.63a3.71,3.71,0,1,1-3-3L73.07,45.31a1.14,1.14,0,0,0,.33-1,1.2,1.2,0,0,0-.64-.89,32.24,32.24,0,0,0-8.12-2.84c-.77-.16-1.56-.3-2.35-.4a1.13,1.13,0,0,0-1,.34l-8.45,8.44a3.7,3.7,0,1,1-3.32-2.64L53.82,42a1.2,1.2,0,0,0-.94-2c-2.18.16-4.35.44-6.52.79h-.09a2.65,2.65,0,0,1-2.5-.71L29.58,25.82a2.67,2.67,0,0,1,0-3.76l2.81-2.81-1.81-1.81a1.2,1.2,0,0,0-1.7,0l-5.69,5.68L20.6,20.54l-.53.54,2.59,2.59L16.4,29.93l2.66,2.66,2.81-2.81a2.66,2.66,0,0,1,3.76,0L40.51,44.65a2.64,2.64,0,0,1,.7,2.53,53.64,53.64,0,0,0-.67,16.64,1.22,1.22,0,0,0,2.05.68L57.21,49.87a3.71,3.71,0,1,1,6.27,2,3.74,3.74,0,0,1-3.29,1L42.92,70.13a1.18,1.18,0,0,0-.25,1.32,33,33,0,0,0,5.25,8.45,1.2,1.2,0,0,0,.87.43A1.18,1.18,0,0,0,49.7,80L68.58,61.09a3.69,3.69,0,0,1,5.12-3.9,2,2,0,0,1,1.18.59,2.09,2.09,0,0,1,.51.87,3.69,3.69,0,0,1-4,5.55L52.65,83a1.19,1.19,0,0,0-.35.9,1.23,1.23,0,0,0,.42.87,33.64,33.64,0,0,0,8.4,5.3,1.2,1.2,0,0,0,1.33-.25L79.79,72.46a3.71,3.71,0,1,1,3,3L68,90.21a1.21,1.21,0,0,0-.3,1.21,1.19,1.19,0,0,0,1,.82c6.45,1.05,13,.25,19.52-1-.23,1.19-.47,2.38-.71,3.56l-.41,2c-13.53,2.33-27.32,2.6-40.47-10.56a37.9,37.9,0,0,1-11-20.1c-1.2-6.3-.77-12.57.21-18.77l-12-12-2.81,2.81a2.66,2.66,0,0,1-3.77,0l-6-6A70.26,70.26,0,0,0,96.31,135.47C84.14,122.82,87,108.63,90,93.93Z"></path><rect class="cls-3" x="165.24" y="68.34" width="393.97" height="3.79"></rect><path class="cls-4" d="M230.34,55.08v-.36l-5.79-41.5a7.6,7.6,0,0,0-7.72-6.71,7.48,7.48,0,0,0-7.15,5L197.07,45.16,184.46,11.49a7.49,7.49,0,0,0-7.15-5,7.59,7.59,0,0,0-7.72,6.66l-5.75,41.17,0,.74a5.16,5.16,0,0,0,10.26.65l4.31-31.29,11.48,30.65a7.49,7.49,0,0,0,7.26,5,7.57,7.57,0,0,0,7.16-5l11.5-30.73,4.33,31.41a5.16,5.16,0,0,0,10.24-.76Z"></path><path class="cls-4" d="M278,54.83a5.26,5.26,0,0,0-5.31-5.31h-16a12.77,12.77,0,0,1-12.6-11.05h25.75a5.27,5.27,0,0,0,0-10.54H244.1a12.78,12.78,0,0,1,12.6-11h16a5.27,5.27,0,1,0,0-10.54h-16a23.56,23.56,0,0,0-23.24,23.25v7.22A23.55,23.55,0,0,0,256.7,60.06h16A5.27,5.27,0,0,0,278,54.83Z"></path><path class="cls-4" d="M329.52,36.81V29.59A23.57,23.57,0,0,0,306.27,6.34H295a13.22,13.22,0,0,0-1.66.11l0,.3-.87-.36-.24.24a13.62,13.62,0,0,0-6.36,3.27l-.34.35a13.42,13.42,0,0,0-3.9,9.44v27a13.48,13.48,0,0,0,3.9,9.45l.39.38a13.52,13.52,0,0,0,6.41,3.25l.15.15.2-.09.1,0v-.07l.56-.23,0,.38a13.21,13.21,0,0,0,1.66.1h11.28A23.28,23.28,0,0,0,329.52,36.81Zm-10.46-7.22v7.22a12.92,12.92,0,0,1-12.79,12.71H295a3,3,0,0,1-1.76-.58l0,0-.2-.2a2.88,2.88,0,0,1-.81-2v-27a2.85,2.85,0,0,1,.81-2l.2-.2.05,0a2.92,2.92,0,0,1,1.75-.58h11.28A12.92,12.92,0,0,1,319.06,29.59Z"></path><path class="cls-4" d="M341.42,6.34a5.23,5.23,0,0,0-5.23,5.23V54.83a5.27,5.27,0,0,0,10.54,0V11.57A5.28,5.28,0,0,0,341.42,6.34Z"></path><path class="cls-4" d="M401,25.13A19,19,0,0,0,382.16,6.34h-15.9a13.26,13.26,0,0,0-1.67.11l0,.3-.88-.36-.24.24a13.59,13.59,0,0,0-6.35,3.27l-.35.35a13.42,13.42,0,0,0-3.9,9.44V54.83a5.27,5.27,0,0,0,10.54,0V43.91h19A19,19,0,0,0,401,25.13Zm-10.54,0a8.35,8.35,0,0,1-8.25,8.24H363.45V19.69a2.8,2.8,0,0,1,.81-2l.2-.2,0,0a3,3,0,0,1,1.76-.57h15.9A8.36,8.36,0,0,1,390.41,25.13Z"></path><path class="cls-4" d="M398.07,54.91a5.16,5.16,0,0,0,5.15,5.15A5.07,5.07,0,0,0,408,56.93l3.88-9.29h27.64l3.78,9.06A4.86,4.86,0,0,0,448,60.06a5.19,5.19,0,0,0,5.15-5.23V54l-.12-.55-16.71-40a12,12,0,0,0-4-5l-.85-.55-.13,0h0a11.62,11.62,0,0,0-4.95-1.46l0,.49-.31-.16V6.35A11.78,11.78,0,0,0,419.58,8l-.3.18-.28.22-.1.1a11.07,11.07,0,0,0-3.95,5L398.52,52.79A4.84,4.84,0,0,0,398.07,54.91Zm18.06-17.56,8.31-20a1.65,1.65,0,0,1,.49-.56l.17-.08a2.22,2.22,0,0,1,.52-.12,1.63,1.63,0,0,1,.66.14l.26.18a.7.7,0,0,1,.21.33l8.42,20.06Z"></path><path class="cls-4" d="M503.32,60.06a5.27,5.27,0,0,0,5.31-5.23,5.45,5.45,0,0,0-1-3.12l-.15-.23-9.29-9.32a19.14,19.14,0,0,0,10.87-17A19,19,0,0,0,490.25,6.34h-15.9a13.26,13.26,0,0,0-1.67.11l0,.3-.88-.36-.23.24a13.58,13.58,0,0,0-6.36,3.27l-.35.35a13.4,13.4,0,0,0-3.9,9.44V54.83a5.27,5.27,0,0,0,10.54,0V43.91H485l14.45,14.46A5.07,5.07,0,0,0,503.32,60.06ZM490.25,33.37H471.54V19.69a2.8,2.8,0,0,1,.81-2l.2-.2.05,0a2.93,2.93,0,0,1,1.75-.57h15.9a8.25,8.25,0,1,1,0,16.49Z"></path><path class="cls-4" d="M551.91,33a23.2,23.2,0,0,0,8.25-17.78V11.57a5.27,5.27,0,0,0-10.54,0v3.66a12.86,12.86,0,0,1-11.86,12.7h-9.25V11.57a5.27,5.27,0,0,0-10.54,0V54.83a5.27,5.27,0,0,0,10.54,0V38.47h8.89a12.88,12.88,0,0,1,12.71,12.71v3.65a5.27,5.27,0,0,0,10.54,0v-3.7A23.67,23.67,0,0,0,551.91,33Z"></path><path class="cls-4" d="M185.23,86a12.7,12.7,0,0,0-3.87-2.57,12.08,12.08,0,0,0-4.76-1h-8.79a3.35,3.35,0,0,0-3.35,3.35V111.5a3.33,3.33,0,0,0,3.35,3.34h8.83a11.92,11.92,0,0,0,4.72-1,12.36,12.36,0,0,0,3.86-2.57,11.91,11.91,0,0,0,2.6-3.79,11.66,11.66,0,0,0,1-4.68V94.44a11.71,11.71,0,0,0-1-4.69A12.28,12.28,0,0,0,185.23,86Zm-3.1,8.48v8.41a5,5,0,0,1-.43,2.07,5.29,5.29,0,0,1-1.16,1.7,5.91,5.91,0,0,1-1.75,1.15,5.5,5.5,0,0,1-2.15.43h-5.53V89.09h5.49a5.49,5.49,0,0,1,2.17.43,5.58,5.58,0,0,1,1.77,1.15,5.14,5.14,0,0,1,1.16,1.69A5.07,5.07,0,0,1,182.13,94.44Z"></path><path class="cls-4" d="M208.75,82.44a3.25,3.25,0,0,0-2.37,1,3.21,3.21,0,0,0-1,2.37v25.89a3.23,3.23,0,0,0,1,2.38,3.28,3.28,0,0,0,2.34,1,3.35,3.35,0,0,0,3.35-3.35V85.79a3.2,3.2,0,0,0-1-2.38A3.28,3.28,0,0,0,208.75,82.44Z"></path><path class="cls-4" d="M245.26,84.25a3.6,3.6,0,0,0-1.16-1.38,3.1,3.1,0,0,0-1.88-.62,3.24,3.24,0,0,0-3,2L228.06,110.4a2.24,2.24,0,0,0-.21.69,3.72,3.72,0,0,0-.06.64,3.42,3.42,0,0,0,.86,2.2,3,3,0,0,0,2.44,1.1,3.39,3.39,0,0,0,1.77-.49,3.45,3.45,0,0,0,1.29-1.54c.47-1.15.94-2.3,1.42-3.45.42-1,.84-2,1.27-3h10.8l2.69,6.42a3.29,3.29,0,0,0,5.5.94,3.42,3.42,0,0,0,.86-2.2,3.37,3.37,0,0,0-.3-1.29Zm-.48,15.63H239.6c.18-.42.36-.82.52-1.21.31-.71.62-1.41.93-2.09s.62-1.39.92-2.1l.24-.55Z"></path><path class="cls-4" d="M291.2,96.56h-5.09a3.18,3.18,0,0,0-2.36,1,3.38,3.38,0,0,0,0,4.68,3.16,3.16,0,0,0,2.36,1h1.75v.49a5.37,5.37,0,0,1-.43,2.1,5.44,5.44,0,0,1-1.17,1.74,5.47,5.47,0,0,1-6,1.17,5.68,5.68,0,0,1-1.78-1.17,5.26,5.26,0,0,1-1.18-1.74,5.19,5.19,0,0,1-.43-2.1V93.59a5.19,5.19,0,0,1,.43-2.1,5.45,5.45,0,0,1,2.91-2.91,5.47,5.47,0,0,1,2.15-.43,5.17,5.17,0,0,1,3.12,1,5.93,5.93,0,0,1,2.06,2.58,3,3,0,0,0,1.3,1.48,3.35,3.35,0,0,0,1.7.48A3,3,0,0,0,293,92.59a3.4,3.4,0,0,0,.84-2.22,6.08,6.08,0,0,0,0-.61,2.54,2.54,0,0,0-.17-.71A12.7,12.7,0,0,0,291.83,86a11.84,11.84,0,0,0-2.6-2.4A12.61,12.61,0,0,0,286,82a12.3,12.3,0,0,0-3.64-.55,11.92,11.92,0,0,0-4.72,1,12.15,12.15,0,0,0-3.87,2.6,12.55,12.55,0,0,0-2.62,3.86,11.76,11.76,0,0,0-1,4.72v10.1a11.55,11.55,0,0,0,1,4.71,12.43,12.43,0,0,0,6.47,6.45,12,12,0,0,0,9.45,0,12.67,12.67,0,0,0,3.86-2.62,12.42,12.42,0,0,0,2.62-3.83,11.55,11.55,0,0,0,1-4.71V99.86a3.15,3.15,0,0,0-1-2.36A3.29,3.29,0,0,0,291.2,96.56Z"></path><path class="cls-4" d="M331.76,85.85a12.67,12.67,0,0,0-3.86-2.62,12,12,0,0,0-9.46,0,12.61,12.61,0,0,0-3.86,2.62A12.27,12.27,0,0,0,312,89.69a11.78,11.78,0,0,0-.95,4.7v17.29a3.33,3.33,0,0,0,3.34,3.35,3.13,3.13,0,0,0,2.36-1,3.25,3.25,0,0,0,.94-2.36V94.39a5.37,5.37,0,0,1,.43-2.1,5.6,5.6,0,0,1,1.17-1.75A5.47,5.47,0,0,1,321,89.38a5.61,5.61,0,0,1,6.07,1.17,5.28,5.28,0,0,1,1.19,1.74,5.37,5.37,0,0,1,.43,2.1v17.29a3.23,3.23,0,0,0,1,2.38,3.28,3.28,0,0,0,2.34,1,3.15,3.15,0,0,0,2.36-1,3.29,3.29,0,0,0,.94-2.36V94.39a11.55,11.55,0,0,0-1-4.71A12.57,12.57,0,0,0,331.76,85.85Z"></path><path class="cls-4" d="M372.56,85a12.1,12.1,0,0,0-3.86-2.6,12.28,12.28,0,0,0-9.45,0,12.1,12.1,0,0,0-3.86,2.6,12.67,12.67,0,0,0-2.62,3.86,11.64,11.64,0,0,0-1,4.72v10.1a11.55,11.55,0,0,0,1,4.71,12.5,12.5,0,0,0,6.48,6.45,12,12,0,0,0,9.45,0,12.5,12.5,0,0,0,6.48-6.45,11.55,11.55,0,0,0,1-4.71V93.59a11.59,11.59,0,0,0-1-4.72A12.67,12.67,0,0,0,372.56,85Zm-3.1,8.58v10.1a5.19,5.19,0,0,1-.43,2.1,5.4,5.4,0,0,1-1.16,1.75,5.57,5.57,0,0,1-1.75,1.16,5.49,5.49,0,0,1-4.25,0,5.63,5.63,0,0,1-1.77-1.17,5.44,5.44,0,0,1-1.19-1.74,5.36,5.36,0,0,1-.42-2.1V93.59a5.39,5.39,0,0,1,.42-2.1,5.43,5.43,0,0,1,2.92-2.91,5.47,5.47,0,0,1,2.15-.43,5.4,5.4,0,0,1,2.1.43,5.66,5.66,0,0,1,1.77,1.18,5.38,5.38,0,0,1,1.61,3.83Z"></path><path class="cls-4" d="M414.06,96.72a12.88,12.88,0,0,0-4.11-2,17.15,17.15,0,0,0-4.84-.68,11.54,11.54,0,0,1-2.09-.18,5.31,5.31,0,0,1-1.59-.52,2.47,2.47,0,0,1-.93-.85,2.1,2.1,0,0,1-.32-1.23,2.64,2.64,0,0,1,1.05-2,5.79,5.79,0,0,1,3.83-1,5.1,5.1,0,0,1,1.55.21,4.88,4.88,0,0,1,1.19.58,6.71,6.71,0,0,1,1,.87l1,1.11h0a3.37,3.37,0,0,0,1.19.87,3.55,3.55,0,0,0,1.49.33A3.16,3.16,0,0,0,415,91.11a3.4,3.4,0,0,0,.91-2.24,3.5,3.5,0,0,0-.18-1.09,5.44,5.44,0,0,0-.34-.84,9.38,9.38,0,0,0-3-3.21,15,15,0,0,0-3.28-1.6,12.94,12.94,0,0,0-2.77-.62l-1.21-.1a16.82,16.82,0,0,0-4.74.64A10.66,10.66,0,0,0,396.65,84a8.84,8.84,0,0,0-2.42,3.13,10.7,10.7,0,0,0,.06,8.45,8,8,0,0,0,2.54,3,11.06,11.06,0,0,0,3.71,1.68,18.19,18.19,0,0,0,4.57.54,9.91,9.91,0,0,1,2.33.28,6.74,6.74,0,0,1,1.93.8,3.8,3.8,0,0,1,1.25,1.24,3.3,3.3,0,0,1,.44,1.77,3.15,3.15,0,0,1-.46,1.75,4.18,4.18,0,0,1-1.29,1.29,6.22,6.22,0,0,1-1.91.81,9.32,9.32,0,0,1-2.29.28,6.45,6.45,0,0,1-3.66-1,5.87,5.87,0,0,1-2.12-2.3,4.88,4.88,0,0,0-1.36-2,3.44,3.44,0,0,0-2.35-.87,3,3,0,0,0-1.76.54,3.59,3.59,0,0,0-1.1,1.26,3.94,3.94,0,0,0-.44,1.61,3.25,3.25,0,0,0,.34,1.7,12.34,12.34,0,0,0,3.13,4.44,14.36,14.36,0,0,0,3.71,2.34,12.51,12.51,0,0,0,3.37.94,18.94,18.94,0,0,0,2,.17,18.32,18.32,0,0,0,5-.66,12.22,12.22,0,0,0,4.16-2,10,10,0,0,0,2.86-3.44,10.49,10.49,0,0,0,1.07-4.84,10.35,10.35,0,0,0-1-4.72A9.93,9.93,0,0,0,414.06,96.72Z"></path><path class="cls-4" d="M452.13,82.44H434.46a3.16,3.16,0,0,0-2.36,1,3.29,3.29,0,0,0-.94,2.36,3.24,3.24,0,0,0,.95,2.35,3.2,3.2,0,0,0,2.35,1H440v22.59a3.23,3.23,0,0,0,1,2.38,3.28,3.28,0,0,0,2.34,1,3.35,3.35,0,0,0,3.35-3.35V89.09h5.49a3.25,3.25,0,0,0,2.37-1,3.32,3.32,0,0,0,0-4.69A3.25,3.25,0,0,0,452.13,82.44Z"></path><path class="cls-4" d="M474.8,82.44a3.33,3.33,0,0,0-3.35,3.35v25.89a3.2,3.2,0,0,0,1,2.38,3.33,3.33,0,0,0,5.68-2.38V85.79a3.2,3.2,0,0,0-1-2.38A3.25,3.25,0,0,0,474.8,82.44Z"></path><path class="cls-4" d="M501.85,91.45A5.26,5.26,0,0,1,503,89.71a5.88,5.88,0,0,1,1.78-1.18,5.45,5.45,0,0,1,2.14-.42,5.17,5.17,0,0,1,3.13,1,5.72,5.72,0,0,1,2,2.56,3.2,3.2,0,0,0,3,2,3,3,0,0,0,2.47-1.08,3.42,3.42,0,0,0,.83-2.22,5.13,5.13,0,0,0-.08-.8,3,3,0,0,0-.33-.9,11.71,11.71,0,0,0-1.81-2.89,12.14,12.14,0,0,0-2.56-2.29,12,12,0,0,0-6.7-2,12.12,12.12,0,0,0-11.23,7.42,11.92,11.92,0,0,0-1,4.72v10.14a11.55,11.55,0,0,0,1,4.71,12.42,12.42,0,0,0,2.62,3.83,12.75,12.75,0,0,0,3.85,2.62,11.84,11.84,0,0,0,4.73,1,12.12,12.12,0,0,0,3.69-.55,11,11,0,0,0,3.21-1.58,12.18,12.18,0,0,0,2.56-2.41,11.36,11.36,0,0,0,1.77-3.07,3.14,3.14,0,0,0,.25-1.3,3.42,3.42,0,0,0-.86-2.23,3.07,3.07,0,0,0-2.44-1.07,3.26,3.26,0,0,0-1.69.54,3.47,3.47,0,0,0-1.31,1.43,6.16,6.16,0,0,1-2.06,2.56,5.07,5.07,0,0,1-3.12,1,5.19,5.19,0,0,1-2.1-.43,5.63,5.63,0,0,1-1.77-1.17,5.56,5.56,0,0,1-1.22-1.75,5.16,5.16,0,0,1-.44-2.09V93.55A5.19,5.19,0,0,1,501.85,91.45Z"></path><path class="cls-4" d="M556.1,96.72a12.73,12.73,0,0,0-4.1-2,17.22,17.22,0,0,0-4.85-.68,11.7,11.7,0,0,1-2.09-.18,5.24,5.24,0,0,1-1.58-.52,2.5,2.5,0,0,1-.94-.85,2.18,2.18,0,0,1-.32-1.23,2.68,2.68,0,0,1,1-2,5.79,5.79,0,0,1,3.83-1,5.17,5.17,0,0,1,1.56.21,5,5,0,0,1,1.18.58,6.24,6.24,0,0,1,1,.87c.33.36.65.73,1,1.11h0a3.7,3.7,0,0,0,2.69,1.2A3.16,3.16,0,0,0,557,91.11a3.41,3.41,0,0,0,.92-2.24,3.5,3.5,0,0,0-.18-1.09,6.64,6.64,0,0,0-.35-.84,9.28,9.28,0,0,0-3-3.21,14.73,14.73,0,0,0-3.28-1.6,12.94,12.94,0,0,0-2.77-.62l-1.21-.1a16.7,16.7,0,0,0-4.73.64A10.71,10.71,0,0,0,538.69,84a8.7,8.7,0,0,0-2.41,3.13,10.75,10.75,0,0,0,.05,8.45,8.12,8.12,0,0,0,2.54,3,11.06,11.06,0,0,0,3.71,1.68,18.19,18.19,0,0,0,4.57.54,9.91,9.91,0,0,1,2.33.28,6.74,6.74,0,0,1,1.93.8,3.71,3.71,0,0,1,1.25,1.24,3.3,3.3,0,0,1,.44,1.77,3.15,3.15,0,0,1-.46,1.75,4.18,4.18,0,0,1-1.29,1.29,6.22,6.22,0,0,1-1.91.81,9.32,9.32,0,0,1-2.29.28,6.45,6.45,0,0,1-3.66-1,5.87,5.87,0,0,1-2.12-2.3,5,5,0,0,0-1.35-2,3.46,3.46,0,0,0-2.36-.87,3,3,0,0,0-1.76.54,3.59,3.59,0,0,0-1.1,1.26,4.1,4.1,0,0,0-.44,1.61,3.16,3.16,0,0,0,.35,1.7,12.11,12.11,0,0,0,3.13,4.44,14,14,0,0,0,3.71,2.34,12.55,12.55,0,0,0,3.36.94,18.86,18.86,0,0,0,2,.17,18.25,18.25,0,0,0,5-.66,12,12,0,0,0,4.16-2,10.1,10.1,0,0,0,2.87-3.44,10.62,10.62,0,0,0,1.06-4.84,10.35,10.35,0,0,0-1-4.72A9.82,9.82,0,0,0,556.1,96.72Z"></path><path class="cls-3" d="M179.11,140.05H175.7L171.26,135H168.5v5.09h-2.88V124.8l7.25,0c3.59,0,5.48,2.42,5.48,5.05a4.52,4.52,0,0,1-3.85,4.79l4.61,5.2ZM168.5,127.5v4.87h4.37a2.44,2.44,0,1,0,0-4.87Z"></path><path class="cls-3" d="M191.64,140.05h-11.4V124.82h11.4v2.79h-8.55v3.5h8.25v2.68h-8.25v3.44h8.55Z"></path><path class="cls-3" d="M193.86,140.05V124.84h10.95v2.77h-8.08v4.15h7.64v2.66h-7.64v5.63Z"></path><path class="cls-3" d="M218.14,140.05h-11.4V124.82h11.4v2.79h-8.55v3.5h8.25v2.68h-8.25v3.44h8.55Z"></path><path class="cls-3" d="M233.87,140.05h-3.41L226,135h-2.77v5.09h-2.87V124.8l7.25,0c3.59,0,5.48,2.42,5.48,5.05a4.52,4.52,0,0,1-3.85,4.79l4.61,5.2ZM223.25,127.5v4.87h4.38a2.44,2.44,0,1,0,0-4.87Z"></path><path class="cls-3" d="M248.56,140.05h-3.42L240.7,135h-2.76v5.09h-2.88V124.8l7.25,0c3.59,0,5.48,2.42,5.48,5.05a4.52,4.52,0,0,1-3.85,4.79l4.62,5.2ZM237.94,127.5v4.87h4.37a2.44,2.44,0,1,0,0-4.87Z"></path><path class="cls-3" d="M260.54,137.18h-8l-1.31,2.87h-3.11L255,124.82h3.14L265,140.05h-3.13Zm-4-9.16-2.83,6.49h5.66Z"></path><path class="cls-3" d="M269.35,124.82V137.4h7.83v2.65h-10.7V124.82Z"></path><path class="cls-3" d="M286.47,138.68a1.57,1.57,0,0,1-3.13,0A1.57,1.57,0,0,1,286.47,138.68Z"></path><path class="cls-3" d="M306.77,140.05h-3.42L298.92,135h-2.77v5.09h-2.87V124.8l7.25,0c3.59,0,5.48,2.42,5.48,5.05a4.52,4.52,0,0,1-3.85,4.79l4.61,5.2ZM296.15,127.5v4.87h4.38a2.44,2.44,0,1,0,0-4.87Z"></path><path class="cls-3" d="M319.3,140.05H307.9V124.82h11.4v2.79h-8.55v3.5H319v2.68h-8.25v3.44h8.55Z"></path><path class="cls-3" d="M331.38,128.5a4.39,4.39,0,0,0-3.62-1.7c-2.13,0-3.15.9-3.15,2,0,1.32,1.56,1.69,3.39,1.91,3.18.39,6.14,1.22,6.14,4.85,0,3.4-3,4.86-6.4,4.86-3.11,0-5.5-1-6.63-3.75l2.39-1.24c.67,1.68,2.44,2.42,4.29,2.42s3.5-.63,3.5-2.29c0-1.43-1.5-2-3.53-2.24-3.11-.37-6-1.19-6-4.61,0-3.13,3.09-4.42,5.9-4.44,2.37,0,4.83.68,6,3Z"></path><path class="cls-3" d="M347.71,140.05h-11.4V124.82h11.4v2.79h-8.55v3.5h8.25v2.68h-8.25v3.44h8.55Z"></path><path class="cls-3" d="M360.75,137.18h-8l-1.3,2.87h-3.12l6.84-15.23h3.13l6.83,15.23H362Zm-4-9.16-2.83,6.49h5.66Z"></path><path class="cls-3" d="M380,140.05h-3.41L372.1,135h-2.76v5.09h-2.88V124.8l7.25,0c3.59,0,5.48,2.42,5.48,5.05a4.52,4.52,0,0,1-3.85,4.79l4.61,5.2ZM369.34,127.5v4.87h4.37a2.44,2.44,0,1,0,0-4.87Z"></path><path class="cls-3" d="M394.55,138.14a8,8,0,0,1-5.79,2.26c-5.65,0-8.05-3.89-8.07-7.85a7.67,7.67,0,0,1,8.07-8,7.86,7.86,0,0,1,5.6,2.33l-1.92,1.85a5.23,5.23,0,0,0-3.68-1.44,5,5,0,0,0-5.24,5.29,4.88,4.88,0,0,0,5.24,5.15,5.6,5.6,0,0,0,3.83-1.54Z"></path><path class="cls-3" d="M406.54,140.08v-6.16h-7.49v6.16h-2.87V124.84h2.87v6.42h7.49v-6.42h2.85v15.24Z"></path><path class="cls-3" d="M419.35,138.68a1.57,1.57,0,0,1-3.13,0A1.57,1.57,0,0,1,419.35,138.68Z"></path><path class="cls-3" d="M426.16,140.05V124.82H429v15.23Z"></path><path class="cls-3" d="M441.72,124.8h2.87v15.25H442.8v0l-8-10.3v10.27h-2.88V124.82h2.33l7.47,9.45Z"></path><path class="cls-3" d="M457.23,124.8h2.87v15.25h-1.79v0l-8-10.3v10.27h-2.87V124.82h2.32l7.47,9.45Z"></path><path class="cls-3" d="M477.92,132.53c-.05,3.93-2.46,7.87-7.82,7.87s-7.83-3.85-7.83-7.85,2.57-8,7.83-8S478,128.54,477.92,132.53Zm-12.82.06c.07,2.5,1.41,5.18,5,5.18s4.94-2.7,5-5.2-1.39-5.44-5-5.44S465,130,465.1,132.59Z"></path><path class="cls-3" d="M487.6,140.12h-3l-6.34-15.3h3.22l4.59,11.86,4.62-11.86h3.22Z"></path><path class="cls-3" d="M506.5,137.18h-8l-1.31,2.87h-3.11L501,124.82h3.14l6.83,15.23h-3.13Zm-4-9.16-2.83,6.49h5.66Z"></path><path class="cls-3" d="M513.66,127.43h-4.83v-2.61h12.53v2.61h-4.83v12.62h-2.87Z"></path><path class="cls-3" d="M523.12,140.05V124.82H526v15.23Z"></path><path class="cls-3" d="M544.1,132.53c-.05,3.93-2.46,7.87-7.82,7.87s-7.83-3.85-7.83-7.85,2.57-8,7.83-8S544.14,128.54,544.1,132.53Zm-12.82.06c.06,2.5,1.41,5.18,5,5.18s4.94-2.7,5-5.2-1.39-5.44-5-5.44S531.21,130,531.28,132.59Z"></path><path class="cls-3" d="M556.21,124.8h2.87v15.25H557.3v0l-8-10.3v10.27h-2.87V124.82h2.33l7.46,9.45Z"></path></g></g></svg>